<?xml version="1.0" standalone="no"?>
<!DOCTYPE svg PUBLIC "-//W3C//DTD SVG 20010904//EN"
 "http://www.w3.org/TR/2001/REC-SVG-20010904/DTD/svg10.dtd">
<svg version="1.0" xmlns="http://www.w3.org/2000/svg"
 width="1200.000000pt" height="1350.000000pt" viewBox="0 0 1200.000000 1350.000000"
 preserveAspectRatio="xMidYMid meet">

<g transform="translate(0.000000,1350.000000) scale(0.100000,-0.100000)"
fill="#000000" stroke="none">
<path d="M10850 9578 c-536 -309 -977 -564 -980 -568 -6 -8 -1928 -1114 -1950
-1122 -15 -6 -3821 -2196 -3829 -2203 -6 -7 86 -150 164 -254 423 -568 1136
-908 1845 -878 591 26 1111 259 1521 683 99 103 218 255 284 363 24 40 42 60
51 57 7 -3 114 -63 236 -134 123 -71 552 -319 953 -552 402 -232 732 -424 733
-425 6 -6 -128 -215 -223 -350 -496 -702 -1199 -1254 -1995 -1568 -586 -231
-1190 -333 -1824 -307 -802 34 -1558 273 -2231 708 -551 355 -1059 877 -1380
1415 -52 87 -74 116 -87 113 -19 -4 -1966 -1123 -1986 -1141 -24 -22 108 -197
226 -298 113 -96 -29 -13 2117 -1247 1581 -909 2298 -1322 2620 -1510 322
-188 387 -221 506 -261 135 -45 229 -60 369 -60 178 0 331 35 504 115 39 18
841 476 1781 1018 941 542 2036 1173 2434 1402 398 229 749 434 780 456 278
191 438 453 481 790 17 130 8 5895 -9 5970 -31 137 -110 350 -130 350 -3 0
-445 -253 -981 -562z m-1390 -1843 l0 -315 315 0 315 0 2 313 3 312 158 3 157
3 0 -316 0 -315 315 0 315 0 0 -160 0 -160 -315 0 -315 0 0 -315 0 -315 315 0
315 0 0 -160 0 -160 -315 0 -315 0 0 -315 0 -316 -157 3 -158 3 -3 313 -2 312
-315 0 -315 0 0 -315 0 -315 -155 0 -155 0 0 315 0 315 -315 0 -315 0 0 160 0
160 315 0 315 0 0 315 0 315 -315 0 -315 0 0 160 0 160 315 0 315 0 0 315 0
315 155 0 155 0 0 -315z"/>
<path d="M9460 6785 l0 -315 315 0 315 0 0 315 0 315 -315 0 -315 0 0 -315z"/>
</g>
</svg>
