<?xml version="1.0" standalone="no"?>
<!DOCTYPE svg PUBLIC "-//W3C//DTD SVG 20010904//EN"
 "http://www.w3.org/TR/2001/REC-SVG-20010904/DTD/svg10.dtd">
<svg version="1.0" xmlns="http://www.w3.org/2000/svg"
 width="512.000000pt" height="512.000000pt" viewBox="0 0 512.000000 512.000000"
 preserveAspectRatio="xMidYMid meet">

<g transform="translate(0.000000,512.000000) scale(0.100000,-0.100000)"
fill="#000000" stroke="none">
<path d="M2315 5109 c-311 -31 -637 -126 -905 -262 -1135 -577 -1677 -1882
-1280 -3087 126 -384 333 -721 621 -1009 406 -405 901 -648 1494 -733 118 -17
512 -17 630 0 598 85 1096 331 1502 743 404 409 641 894 725 1484 17 118 17
512 0 630 -70 490 -250 917 -540 1280 -147 184 -377 397 -564 523 -324 218
-678 355 -1078 417 -125 19 -477 28 -605 14z m1548 -954 c77 -20 137 -49 187
-93 106 -90 120 -250 32 -353 -44 -51 -85 -69 -155 -69 -155 0 -233 139 -157
280 40 76 40 114 -2 137 -73 38 -217 13 -307 -55 -170 -128 -256 -345 -365
-922 l-33 -175 26 -6 c49 -12 216 -9 282 5 108 23 209 86 209 130 0 6 -16 44
-36 84 -35 70 -36 76 -24 115 23 77 118 138 193 123 74 -15 128 -95 128 -190
0 -130 -128 -266 -313 -332 -95 -34 -183 -46 -334 -45 l-150 0 -48 -262 c-110
-600 -217 -915 -412 -1212 -221 -336 -495 -542 -788 -594 -219 -39 -417 35
-490 182 -21 40 -26 66 -26 121 0 82 20 133 71 185 146 147 386 81 406 -111 7
-71 -12 -111 -78 -161 -39 -30 -49 -43 -49 -67 0 -70 95 -76 220 -14 85 43
190 150 255 261 109 186 202 508 290 1003 43 244 95 487 137 650 22 85 42 166
45 180 3 21 -12 39 -104 120 -208 184 -274 226 -411 261 -129 33 -204 21 -277
-43 -61 -54 -88 -109 -88 -178 0 -81 27 -129 157 -274 130 -145 195 -237 234
-329 36 -85 37 -232 3 -319 -69 -177 -226 -307 -426 -354 -112 -26 -293 -15
-415 24 -178 59 -299 152 -361 278 -31 62 -34 77 -34 154 0 72 4 92 25 130 63
113 235 119 307 10 54 -79 53 -161 -3 -266 -39 -75 -42 -95 -14 -135 26 -36
129 -86 196 -94 158 -21 306 84 321 227 8 78 -17 127 -129 248 -139 152 -175
198 -214 275 -47 95 -64 164 -64 265 1 229 153 420 405 506 69 24 96 27 195
28 230 0 383 -72 629 -298 58 -53 107 -96 110 -96 3 0 21 42 39 93 81 223 227
478 369 642 150 174 348 298 534 334 73 14 240 12 302 -4z"/>
</g>
</svg>
